<svg width="258" height="258" viewBox="0 0 258 258" fill="none" xmlns="http://www.w3.org/2000/svg">
<g filter="url(#filter0_d_1_14)">
<rect x="4" width="250" height="250" rx="5" fill="#276DBF"/>
</g>
<path d="M45.9688 121.035V125H34.1523V121.035H45.9688ZM35.4023 96.5625V125H30.6562V96.5625H35.4023ZM53.0992 96.5625V125H48.3531V96.5625H53.0992ZM69.2141 117.656C69.2141 117.07 69.149 116.549 69.0187 116.094C68.9016 115.625 68.6737 115.202 68.3352 114.824C67.9966 114.447 67.5148 114.076 66.8898 113.711C66.2779 113.346 65.4836 112.975 64.507 112.598C63.3872 112.168 62.3391 111.699 61.3625 111.191C60.399 110.671 59.5461 110.085 58.8039 109.434C58.0747 108.77 57.5018 107.995 57.0852 107.109C56.6685 106.224 56.4602 105.195 56.4602 104.023C56.4602 102.865 56.662 101.81 57.0656 100.859C57.4823 99.8958 58.0682 99.069 58.8234 98.3789C59.5917 97.6758 60.5031 97.1354 61.5578 96.7578C62.6125 96.3672 63.7779 96.1719 65.0539 96.1719C66.8898 96.1719 68.4589 96.5625 69.7609 97.3438C71.076 98.125 72.0786 99.1732 72.7687 100.488C73.4719 101.803 73.8234 103.262 73.8234 104.863H69.0969C69.0969 103.939 68.9536 103.118 68.6672 102.402C68.3807 101.686 67.938 101.126 67.3391 100.723C66.7401 100.319 65.9654 100.117 65.0148 100.117C64.1424 100.117 63.4198 100.286 62.8469 100.625C62.287 100.964 61.8703 101.426 61.5969 102.012C61.3365 102.598 61.2062 103.268 61.2062 104.023C61.2062 104.544 61.3169 105.02 61.5383 105.449C61.7596 105.866 62.0786 106.25 62.4953 106.602C62.912 106.953 63.4198 107.285 64.0187 107.598C64.6177 107.91 65.3078 108.21 66.0891 108.496C67.4172 108.978 68.576 109.512 69.5656 110.098C70.5552 110.684 71.369 111.341 72.007 112.07C72.6581 112.786 73.1398 113.6 73.4523 114.512C73.7779 115.423 73.9406 116.458 73.9406 117.617C73.9406 118.789 73.7388 119.857 73.3352 120.82C72.9445 121.771 72.3716 122.585 71.6164 123.262C70.8612 123.939 69.9497 124.466 68.882 124.844C67.8143 125.208 66.6164 125.391 65.2883 125.391C64.0643 125.391 62.8859 125.208 61.7531 124.844C60.6333 124.479 59.6307 123.926 58.7453 123.184C57.8599 122.428 57.1568 121.484 56.6359 120.352C56.1281 119.219 55.8742 117.891 55.8742 116.367H60.6203C60.6203 117.279 60.731 118.06 60.9523 118.711C61.1737 119.349 61.4927 119.876 61.9094 120.293C62.3391 120.697 62.8404 120.996 63.4133 121.191C63.9992 121.374 64.6503 121.465 65.3664 121.465C66.2518 121.465 66.9745 121.309 67.5344 120.996C68.1073 120.671 68.5305 120.221 68.8039 119.648C69.0773 119.076 69.2141 118.411 69.2141 117.656ZM86.4031 100.469L79.5281 125H74.5672L83.5906 96.5625H86.6766L86.4031 100.469ZM91.8914 125L84.9969 100.469L84.6648 96.5625H87.8094L96.8719 125H91.8914ZM92.0086 114.434V118.418H78.7664V114.434H92.0086ZM121.738 108.398V112.383H109.766V108.398H121.738ZM110.879 96.5625V125H106.133V96.5625H110.879ZM125.449 96.5625V125H120.723V96.5625H125.449ZM40.0508 161.453H34.0547V157.488H40.0508C41.0273 157.488 41.8151 157.28 42.4141 156.863C43.026 156.447 43.4688 155.874 43.7422 155.145C44.0286 154.415 44.1719 153.589 44.1719 152.664C44.1719 151.779 44.0286 150.945 43.7422 150.164C43.4688 149.383 43.0326 148.751 42.4336 148.27C41.8346 147.788 41.0404 147.547 40.0508 147.547H35.3828V172H30.6562V143.562H40.0508C41.9258 143.562 43.5273 143.953 44.8555 144.734C46.1836 145.516 47.1992 146.59 47.9023 147.957C48.6055 149.311 48.957 150.867 48.957 152.625C48.957 154.461 48.6055 156.036 47.9023 157.352C47.1992 158.667 46.1836 159.682 44.8555 160.398C43.5273 161.102 41.9258 161.453 40.0508 161.453ZM51.5758 143.562H60.1695C62.0445 143.562 63.6331 143.888 64.9352 144.539C66.2372 145.19 67.2268 146.154 67.9039 147.43C68.594 148.693 68.9391 150.262 68.9391 152.137C68.9391 153.556 68.7242 154.806 68.2945 155.887C67.8779 156.967 67.2724 157.879 66.4781 158.621C65.6839 159.35 64.7268 159.917 63.607 160.32L62.2203 161.082H54.9547L54.9352 157.098H60.0523C60.9768 157.098 61.7451 156.896 62.357 156.492C62.969 156.089 63.4247 155.529 63.7242 154.812C64.0367 154.096 64.193 153.283 64.193 152.371C64.193 151.395 64.0562 150.548 63.7828 149.832C63.5094 149.103 63.0797 148.543 62.4937 148.152C61.9078 147.749 61.1331 147.547 60.1695 147.547H56.3219V172H51.5758V143.562ZM64.818 172L59.4078 159.227L64.3492 159.207L69.8961 171.746V172H64.818ZM90.9719 155.457V160.301C90.9719 162.306 90.7375 164.064 90.2687 165.574C89.813 167.085 89.149 168.348 88.2766 169.363C87.4172 170.366 86.3755 171.121 85.1516 171.629C83.9406 172.137 82.5865 172.391 81.0891 172.391C79.6047 172.391 78.2505 172.137 77.0266 171.629C75.8156 171.121 74.7674 170.366 73.882 169.363C73.0096 168.348 72.3326 167.085 71.8508 165.574C71.382 164.064 71.1477 162.306 71.1477 160.301V155.457C71.1477 153.426 71.382 151.648 71.8508 150.125C72.3195 148.589 72.9901 147.306 73.8625 146.277C74.7479 145.249 75.7961 144.474 77.007 143.953C78.231 143.432 79.5786 143.172 81.05 143.172C82.5474 143.172 83.9016 143.432 85.1125 143.953C86.3365 144.474 87.3846 145.249 88.257 146.277C89.1294 147.306 89.8 148.589 90.2687 150.125C90.7375 151.648 90.9719 153.426 90.9719 155.457ZM86.2648 160.301V155.418C86.2648 153.973 86.1477 152.736 85.9133 151.707C85.6919 150.665 85.3599 149.819 84.9172 149.168C84.4745 148.504 83.9276 148.016 83.2766 147.703C82.6385 147.378 81.8964 147.215 81.05 147.215C80.2297 147.215 79.494 147.378 78.843 147.703C78.2049 148.016 77.6581 148.504 77.2023 149.168C76.7596 149.819 76.4211 150.665 76.1867 151.707C75.9654 152.736 75.8547 153.973 75.8547 155.418V160.301C75.8547 161.72 75.9719 162.944 76.2062 163.973C76.4406 164.988 76.7792 165.822 77.2219 166.473C77.6776 167.111 78.231 167.586 78.882 167.898C79.5331 168.211 80.2687 168.367 81.0891 168.367C81.9224 168.367 82.6646 168.211 83.3156 167.898C83.9667 167.586 84.507 167.111 84.9367 166.473C85.3794 165.822 85.7115 164.988 85.9328 163.973C86.1542 162.944 86.2648 161.72 86.2648 160.301ZM101.149 172H96.2078L96.2469 168.035H101.149C102.673 168.035 103.89 167.755 104.802 167.195C105.713 166.622 106.371 165.75 106.774 164.578C107.178 163.406 107.38 161.909 107.38 160.086V155.457C107.38 154.051 107.263 152.853 107.028 151.863C106.807 150.861 106.455 150.047 105.973 149.422C105.505 148.784 104.886 148.315 104.118 148.016C103.35 147.703 102.425 147.547 101.345 147.547H96.1102V143.562H101.345C102.972 143.562 104.443 143.823 105.759 144.344C107.074 144.865 108.2 145.633 109.138 146.648C110.088 147.651 110.817 148.895 111.325 150.379C111.833 151.863 112.087 153.569 112.087 155.496V160.086C112.087 162.013 111.833 163.719 111.325 165.203C110.817 166.674 110.088 167.918 109.138 168.934C108.187 169.936 107.041 170.698 105.7 171.219C104.359 171.74 102.842 172 101.149 172ZM98.9227 143.562V172H94.1766V143.562H98.9227ZM128.358 143.562H133.104V163.309C133.104 165.483 132.694 167.234 131.873 168.562C131.066 169.891 129.972 170.861 128.592 171.473C127.225 172.085 125.702 172.391 124.022 172.391C122.277 172.391 120.721 172.085 119.354 171.473C117.987 170.861 116.912 169.891 116.131 168.562C115.35 167.234 114.959 165.483 114.959 163.309V143.562H119.686V163.309C119.686 164.663 119.855 165.711 120.194 166.453C120.545 167.195 121.04 167.71 121.678 167.996C122.329 168.283 123.11 168.426 124.022 168.426C124.933 168.426 125.708 168.283 126.346 167.996C126.997 167.71 127.492 167.195 127.83 166.453C128.182 165.711 128.358 164.663 128.358 163.309V143.562ZM141.152 143.562V172H136.406V143.562H141.152ZM155.352 143.562L145.879 157.293L140.195 164.266L139.297 159.305L143.223 153.484L149.609 143.562H155.352ZM150.137 172L142.93 158.562L146.191 155.184L155.742 172H150.137ZM167.13 143.562V172H162.404V143.562H167.13ZM174.377 143.562V147.547H155.236V143.562H174.377ZM181.468 143.562V172H176.722V143.562H181.468ZM204.653 155.457V160.301C204.653 162.306 204.419 164.064 203.95 165.574C203.494 167.085 202.83 168.348 201.958 169.363C201.098 170.366 200.057 171.121 198.833 171.629C197.622 172.137 196.268 172.391 194.77 172.391C193.286 172.391 191.932 172.137 190.708 171.629C189.497 171.121 188.449 170.366 187.563 169.363C186.691 168.348 186.014 167.085 185.532 165.574C185.063 164.064 184.829 162.306 184.829 160.301V155.457C184.829 153.426 185.063 151.648 185.532 150.125C186.001 148.589 186.671 147.306 187.544 146.277C188.429 145.249 189.477 144.474 190.688 143.953C191.912 143.432 193.26 143.172 194.731 143.172C196.229 143.172 197.583 143.432 198.794 143.953C200.018 144.474 201.066 145.249 201.938 146.277C202.811 147.306 203.481 148.589 203.95 150.125C204.419 151.648 204.653 153.426 204.653 155.457ZM199.946 160.301V155.418C199.946 153.973 199.829 152.736 199.595 151.707C199.373 150.665 199.041 149.819 198.598 149.168C198.156 148.504 197.609 148.016 196.958 147.703C196.32 147.378 195.578 147.215 194.731 147.215C193.911 147.215 193.175 147.378 192.524 147.703C191.886 148.016 191.339 148.504 190.884 149.168C190.441 149.819 190.102 150.665 189.868 151.707C189.647 152.736 189.536 153.973 189.536 155.418V160.301C189.536 161.72 189.653 162.944 189.887 163.973C190.122 164.988 190.46 165.822 190.903 166.473C191.359 167.111 191.912 167.586 192.563 167.898C193.214 168.211 193.95 168.367 194.77 168.367C195.604 168.367 196.346 168.211 196.997 167.898C197.648 167.586 198.188 167.111 198.618 166.473C199.061 165.822 199.393 164.988 199.614 163.973C199.835 162.944 199.946 161.72 199.946 160.301ZM227.135 143.562V172H222.487L212.448 152.312V172H207.858V143.562H212.448L222.565 163.387V143.562H227.135Z" fill="white"/>
<path d="M204.818 32.6298C203.875 30.3506 203.485 28.1482 203.579 26.4536C203.677 24.6792 204.261 23.8203 204.848 23.5774C205.436 23.3345 206.456 23.529 207.779 24.7153C209.043 25.8483 210.323 27.682 211.267 29.9613C212.21 32.2405 212.6 34.4428 212.506 36.1374C212.408 37.9119 211.823 38.7707 211.236 39.0136C210.649 39.2566 209.629 39.062 208.306 37.8757C207.042 36.7428 205.761 34.909 204.818 32.6298Z" stroke="white" stroke-width="2"/>
<path d="M217.043 30.4626C218.912 28.8533 220.882 27.7938 222.521 27.3521C224.236 26.8897 225.235 27.1762 225.65 27.6577C226.064 28.1392 226.199 29.1693 225.486 30.7974C224.806 32.3522 223.465 34.1424 221.596 35.7516C219.726 37.3609 217.757 38.4204 216.118 38.862C214.402 39.3244 213.403 39.038 212.989 38.5565C212.574 38.075 212.44 37.0448 213.152 35.4168C213.832 33.862 215.173 32.0718 217.043 30.4626Z" stroke="white" stroke-width="2"/>
<path d="M217.531 47.8259C215.505 46.4189 213.986 44.7772 213.149 43.3012C212.271 41.7557 212.299 40.7171 212.661 40.1953C213.023 39.6735 213.987 39.2852 215.742 39.5674C217.417 39.837 219.486 40.6869 221.512 42.0939C223.538 43.5009 225.057 45.1426 225.895 46.6186C226.772 48.1641 226.745 49.2027 226.382 49.7245C226.02 50.2464 225.056 50.6346 223.302 50.3524C221.626 50.0829 219.557 49.233 217.531 47.8259Z" stroke="white" stroke-width="2"/>
<path d="M211.807 49.9125C211.116 52.2804 210.042 54.2421 208.908 55.5053C207.721 56.8279 206.728 57.1319 206.118 56.954C205.508 56.7761 204.834 55.9856 204.544 54.2322C204.268 52.5577 204.417 50.3261 205.107 47.9581C205.798 45.5902 206.872 43.6285 208.006 42.3653C209.193 41.0427 210.186 40.7387 210.796 40.9166C211.406 41.0945 212.08 41.885 212.37 43.6384C212.646 45.3129 212.498 47.5445 211.807 49.9125Z" stroke="white" stroke-width="2"/>
<path d="M201.111 43.3232C198.645 43.2841 196.469 42.7676 194.951 42.009C193.361 41.2146 192.805 40.3371 192.815 39.7019C192.825 39.0666 193.409 38.2071 195.023 37.4636C196.564 36.7535 198.756 36.3062 201.222 36.3453C203.688 36.3844 205.864 36.901 207.383 37.6596C208.972 38.4539 209.529 39.3314 209.518 39.9667C209.508 40.6019 208.925 41.4614 207.311 42.2049C205.769 42.915 203.578 43.3623 201.111 43.3232Z" stroke="white" stroke-width="2"/>
<defs>
<filter id="filter0_d_1_14" x="0" y="0" width="258" height="258" filterUnits="userSpaceOnUse" color-interpolation-filters="sRGB">
<feFlood flood-opacity="0" result="BackgroundImageFix"/>
<feColorMatrix in="SourceAlpha" type="matrix" values="0 0 0 0 0 0 0 0 0 0 0 0 0 0 0 0 0 0 127 0" result="hardAlpha"/>
<feOffset dy="4"/>
<feGaussianBlur stdDeviation="2"/>
<feComposite in2="hardAlpha" operator="out"/>
<feColorMatrix type="matrix" values="0 0 0 0 0 0 0 0 0 0 0 0 0 0 0 0 0 0 0.25 0"/>
<feBlend mode="normal" in2="BackgroundImageFix" result="effect1_dropShadow_1_14"/>
<feBlend mode="normal" in="SourceGraphic" in2="effect1_dropShadow_1_14" result="shape"/>
</filter>
</defs>
</svg>
